<?xml version="1.0" encoding="UTF-8" standalone="no"?>
<!DOCTYPE svg PUBLIC "-//W3C//DTD SVG 1.1//EN" "http://www.w3.org/Graphics/SVG/1.1/DTD/svg11.dtd">
<svg width="100%" height="100%" viewBox="0 0 142 142" version="1.1" xmlns="http://www.w3.org/2000/svg" xmlns:xlink="http://www.w3.org/1999/xlink" xml:space="preserve" xmlns:serif="http://www.serif.com/" style="fill-rule:evenodd;clip-rule:evenodd;stroke-linejoin:round;stroke-miterlimit:2;">
    <g transform="matrix(1,0,0,1,-325.615,-493.657)">
        <g>
            <g transform="matrix(1,0,0,1,290.053,131.512)">
                <g transform="matrix(1,0,0,1,35.5119,362.095)">
                    <circle cx="70.9" cy="70.9" r="66.9" style="fill:rgb(183,0,5);"/>
                </g>
                <g transform="matrix(1,0,0,1,35.5619,362.145)">
                    <path d="M70.8,141.7C31.8,141.7 0,109.9 0,70.8C0,31.7 31.8,0 70.8,0C109.8,0 141.7,31.8 141.7,70.9C141.7,110 109.9,141.7 70.8,141.7ZM70.8,8C36.2,8 8,36.2 8,70.8C8,105.4 36.2,133.6 70.8,133.6C105.4,133.6 133.6,105.4 133.6,70.8C133.6,36.2 105.5,8 70.8,8Z" style="fill:rgb(204,204,204);fill-rule:nonzero;"/>
                </g>
                <g transform="matrix(1,0,0,1,35.5619,362.145)">
                    <path d="M70.8,141.7C31.8,141.7 0,109.9 0,70.8C0,31.7 31.8,0 70.8,0C109.8,0 141.7,31.8 141.7,70.9C141.7,110 109.9,141.7 70.8,141.7ZM70.8,8C36.2,8 8,36.2 8,70.8C8,105.4 36.2,133.6 70.8,133.6C105.4,133.6 133.6,105.4 133.6,70.8C133.6,36.2 105.5,8 70.8,8Z" style="fill:rgb(204,204,204);fill-rule:nonzero;"/>
                </g>
            </g>
            <g transform="matrix(1,0,0,1,-1.49329,5.838)">
                <g transform="matrix(0.175781,0,0,0.175781,352.983,513.669)">
                    <path d="M222.813,258.871C226.063,256.301 226.609,251.586 224.039,248.336C170.406,180.555 159.145,136.629 159.145,111.711C159.145,58.383 202.527,15 255.855,15C309.18,15 352.563,58.383 352.563,111.711C352.563,177.637 276.785,262.945 255.848,285.254C253.168,282.41 249.605,278.551 245.438,273.855C242.688,270.758 237.949,270.477 234.852,273.227C231.754,275.977 231.469,280.715 234.219,283.813C243.883,294.703 250.281,301.117 250.551,301.383C251.957,302.789 253.863,303.582 255.855,303.582C257.844,303.582 259.75,302.789 261.156,301.383C265.504,297.039 367.563,194.031 367.563,111.711C367.563,50.113 317.453,0 255.855,0C194.258,0 144.145,50.113 144.145,111.711C144.145,161.164 181.195,218.367 212.277,257.645C214.848,260.891 219.563,261.441 222.813,258.871Z" style="fill:white;fill-rule:nonzero;"/>
                </g>
                <g transform="matrix(0.175781,0,0,0.175781,352.983,513.669)">
                    <path d="M424.195,320.645L412.539,320.645C405.289,284.445 385.664,251.84 356.793,228.293C353.586,225.676 348.859,226.156 346.242,229.367C343.621,232.574 344.102,237.301 347.312,239.918C372.691,260.617 390.187,289.031 397.211,320.645L392.129,320.645C383.574,320.645 376.613,327.605 376.613,336.16L376.613,344.695L287.402,344.695L287.402,336.16C287.402,327.605 280.445,320.645 271.887,320.645L239.824,320.645C231.27,320.645 224.309,327.605 224.309,336.16L224.309,344.695L135.098,344.695L135.098,336.16C135.098,327.605 128.137,320.645 119.582,320.645L114.504,320.645C121.527,289.031 139.02,260.617 164.402,239.918C167.609,237.301 168.09,232.574 165.473,229.363C162.855,226.156 158.129,225.676 154.922,228.293C126.051,251.84 106.426,284.445 99.176,320.648L87.516,320.648C78.961,320.648 72,327.605 72,336.164L72,368.227C72,376.781 78.961,383.742 87.516,383.742L99.172,383.742C106.129,418.426 124.582,450.035 151.598,473.312C180.559,498.262 217.582,512 255.855,512C294.125,512 331.152,498.262 360.109,473.312C387.129,450.035 405.578,418.426 412.539,383.742L424.195,383.742C432.75,383.742 439.711,376.781 439.711,368.227L439.711,336.16C439.711,327.605 432.75,320.645 424.195,320.645ZM239.309,336.16C239.309,335.879 239.539,335.645 239.824,335.645L271.887,335.645C272.172,335.645 272.402,335.875 272.402,336.16L272.402,368.227C272.402,368.512 272.172,368.742 271.887,368.742L239.824,368.742C239.539,368.742 239.309,368.512 239.309,368.227L239.309,336.16ZM87,368.227L87,336.16C87,335.879 87.23,335.645 87.516,335.645L119.578,335.645C119.863,335.645 120.098,335.879 120.098,336.16L120.098,368.227C120.098,368.512 119.863,368.742 119.578,368.742L87.516,368.742C87.23,368.742 87,368.512 87,368.227ZM350.32,461.949C324.082,484.551 290.535,497 255.855,497C221.176,497 187.629,484.551 161.391,461.949C137.672,441.516 121.238,414 114.504,383.742L119.582,383.742C128.137,383.742 135.098,376.781 135.098,368.227L135.098,359.691L224.309,359.691L224.309,368.227C224.309,376.781 231.266,383.742 239.824,383.742L271.887,383.742C280.441,383.742 287.402,376.781 287.402,368.227L287.402,359.691L376.613,359.691L376.613,368.227C376.613,376.781 383.574,383.742 392.129,383.742L397.207,383.742C390.473,414 374.039,441.516 350.32,461.949ZM424.711,368.227C424.711,368.512 424.48,368.742 424.195,368.742L392.129,368.742C391.844,368.742 391.613,368.512 391.613,368.227L391.613,336.16C391.613,335.879 391.844,335.645 392.129,335.645L424.195,335.645C424.48,335.645 424.711,335.879 424.711,336.16L424.711,368.227Z" style="fill:white;fill-rule:nonzero;"/>
                </g>
                <g transform="matrix(0.175781,0,0,0.175781,352.983,513.669)">
                    <path d="M216.289,79.645L216.289,151.789C216.289,155.934 219.648,159.289 223.789,159.289C227.934,159.289 231.289,155.934 231.289,151.789L231.289,79.645C231.289,75.504 227.934,72.145 223.789,72.145C219.648,72.145 216.289,75.504 216.289,79.645Z" style="fill:white;fill-rule:nonzero;"/>
                </g>
                <g transform="matrix(0.175781,0,0,0.175781,352.983,513.669)">
                    <path d="M263.355,151.789L263.355,127.227L275.895,127.227C291.082,127.227 303.438,114.871 303.438,99.688C303.438,84.5 291.082,72.145 275.895,72.145L255.855,72.145C251.715,72.145 248.355,75.504 248.355,79.645L248.355,151.789C248.355,155.934 251.715,159.289 255.855,159.289C259.996,159.289 263.355,155.934 263.355,151.789ZM263.355,87.145L275.895,87.145C282.813,87.145 288.438,92.77 288.438,99.688C288.438,106.602 282.813,112.227 275.895,112.227L263.355,112.227L263.355,87.145Z" style="fill:white;fill-rule:nonzero;"/>
                </g>
            </g>
        </g>
    </g>
</svg>
