<?xml version="1.0" encoding="UTF-8" standalone="no"?>
<!DOCTYPE svg PUBLIC "-//W3C//DTD SVG 1.1//EN" "http://www.w3.org/Graphics/SVG/1.1/DTD/svg11.dtd">
<svg width="100%" height="100%" viewBox="0 0 142 142" version="1.1" xmlns="http://www.w3.org/2000/svg" xmlns:xlink="http://www.w3.org/1999/xlink" xml:space="preserve" xmlns:serif="http://www.serif.com/" style="fill-rule:evenodd;clip-rule:evenodd;stroke-linejoin:round;stroke-miterlimit:2;">
    <g transform="matrix(1,0,0,1,-33.9442,-198.735)">
        <g>
            <g transform="matrix(1,0,0,1,33.8942,198.685)">
                <circle cx="70.9" cy="70.9" r="66.9" style="fill:rgb(183,0,5);"/>
            </g>
            <g transform="matrix(1,0,0,1,33.9442,198.735)">
                <path d="M70.8,141.7C31.8,141.7 0,109.9 0,70.8C0,31.7 31.8,0 70.8,0C109.8,0 141.7,31.8 141.7,70.9C141.7,110 109.9,141.7 70.8,141.7ZM70.8,8C36.2,8 8,36.2 8,70.8C8,105.4 36.2,133.6 70.8,133.6C105.4,133.6 133.6,105.4 133.6,70.8C133.6,36.2 105.5,8 70.8,8Z" style="fill:rgb(204,204,204);fill-rule:nonzero;"/>
            </g>
            <g transform="matrix(1,0,0,1,33.9442,198.735)">
                <path d="M70.8,141.7C31.8,141.7 0,109.9 0,70.8C0,31.7 31.8,0 70.8,0C109.8,0 141.7,31.8 141.7,70.9C141.7,110 109.9,141.7 70.8,141.7ZM70.8,8C36.2,8 8,36.2 8,70.8C8,105.4 36.2,133.6 70.8,133.6C105.4,133.6 133.6,105.4 133.6,70.8C133.6,36.2 105.5,8 70.8,8Z" style="fill:rgb(204,204,204);fill-rule:nonzero;"/>
            </g>
            <g transform="matrix(1,0,0,1,-504.249,-33.9864)">
                <g transform="matrix(0.160515,0,0,0.154069,522.263,275.859)">
                    <path d="M424,48L328,48C314.84,48.015 304.015,58.84 304,72L304,128C304.015,141.16 314.84,151.985 328,152L352,152L352,160C351.995,164.387 348.387,167.995 344,168C339.611,168 336,171.611 336,176C336,180.389 339.611,184 344,184L408,184C412.389,184 416,180.389 416,176C416,171.611 412.389,168 408,168C403.613,167.995 400.005,164.387 400,160L400,152L424,152C437.16,151.985 447.985,141.16 448,128L448,72C447.985,58.84 437.16,48.015 424,48ZM328,64L424,64C428.387,64.005 431.995,67.613 432,72L432,112L320,112L320,72C320.005,67.613 323.613,64.005 328,64ZM385.371,168L366.629,168C367.539,165.431 368.003,162.725 368,160L368,152L384,152L384,160C383.997,162.725 384.461,165.431 385.371,168ZM424,136L328,136C323.613,135.995 320.005,132.387 320,128L432,128C431.995,132.387 428.387,135.995 424,136Z" style="fill:white;fill-rule:nonzero;"/>
                </g>
                <g transform="matrix(0.160515,0,0,0.154069,577.392,263.229)">
                    <path d="M424,48L328,48C314.84,48.015 304.015,58.84 304,72L304,128C304.015,141.16 314.84,151.985 328,152L352,152L352,160C351.995,164.387 348.387,167.995 344,168C339.611,168 336,171.611 336,176C336,180.389 339.611,184 344,184L408,184C412.389,184 416,180.389 416,176C416,171.611 412.389,168 408,168C403.613,167.995 400.005,164.387 400,160L400,152L424,152C437.16,151.985 447.985,141.16 448,128L448,72C447.985,58.84 437.16,48.015 424,48ZM328,64L424,64C428.387,64.005 431.995,67.613 432,72L432,112L320,112L320,72C320.005,67.613 323.613,64.005 328,64ZM385.371,168L366.629,168C367.539,165.431 368.003,162.725 368,160L368,152L384,152L384,160C383.997,162.725 384.461,165.431 385.371,168ZM424,136L328,136C323.613,135.995 320.005,132.387 320,128L432,128C431.995,132.387 428.387,135.995 424,136Z" style="fill:white;fill-rule:nonzero;"/>
                </g>
                <g transform="matrix(0.187718,0,0,0.187718,559.099,246.107)">
                    <g>
                        <path d="M218.539,410.618C217.488,406.61 213.387,404.211 209.376,405.265L144.796,422.211C141.016,423.202 137.076,422.403 133.982,420.017C130.889,417.631 129.115,414.022 129.115,410.115L129.115,397L167.728,397C198.553,397 223.631,371.922 223.631,341.097L223.631,335.844C223.631,328.948 218.021,323.338 211.125,323.338L85.735,323.338C50.954,323.338 58.458,326.698 58.458,330.842C58.458,334.986 50.954,338.346 85.735,338.346L208.625,338.346L208.625,341.097C208.625,363.647 190.279,381.993 167.729,381.993L76.025,381.993C53.475,381.993 35.129,363.647 35.129,341.097L35.129,338.346L50.954,338.346C55.098,338.346 107.605,334.1 107.605,329.956C107.605,325.812 55.098,323.338 50.954,323.338L32.628,323.338C25.732,323.338 20.122,328.948 20.122,335.844L20.122,341.097C20.122,371.922 45.2,397 76.025,397L114.109,397L114.109,410.115C114.109,418.71 118.012,426.65 124.817,431.899C131.634,437.174 140.388,438.899 148.607,436.727L213.187,419.781C217.194,418.729 219.591,414.627 218.539,410.618Z" style="fill:white;fill-rule:nonzero;"/>
                        <path d="M499.494,258.678L320.996,258.678C314.1,258.678 308.49,264.288 308.49,271.184L308.49,276.437C308.49,307.262 333.568,332.34 364.393,332.34L405.669,332.34L405.669,339.758C405.669,347.999 400.102,355.216 392.13,357.307L314.548,377.666L306.757,341.888C304.307,330.632 294.167,322.463 282.647,322.463C271.127,322.463 260.988,330.632 258.537,341.888L249.015,385.615C243.446,411.188 228.407,433.297 206.668,447.872L191.896,457.776C187.098,460.993 185.004,466.868 186.686,472.394C188.367,477.92 193.378,481.634 199.154,481.634L366.14,481.634C371.916,481.634 376.927,477.921 378.608,472.394C380.29,466.868 378.196,460.993 373.398,457.776L358.626,447.872C338.802,434.581 324.576,415.013 317.995,392.278L395.939,371.824C410.504,368.003 420.676,354.817 420.676,339.759L420.676,332.341L456.096,332.341C486.921,332.341 511.999,307.263 511.999,276.438L511.999,271.185C512,264.289 506.39,258.678 499.494,258.678ZM350.269,460.338L359.649,466.626L205.647,466.626L215.026,460.338C240.003,443.593 257.281,418.19 263.68,388.809L273.202,345.082C274.162,340.673 278.135,337.472 282.648,337.472C287.161,337.472 291.134,340.673 292.094,345.082L301.616,388.809C308.014,418.19 325.293,443.592 350.269,460.338ZM496.992,276.437C496.992,298.987 478.646,317.333 456.096,317.333L364.392,317.333C341.842,317.333 323.496,298.987 323.496,276.437L323.496,273.686L496.991,273.686L496.991,276.437L496.992,276.437Z" style="fill:white;fill-rule:nonzero;"/>
                    </g>
                </g>
            </g>
        </g>
    </g>
</svg>
