<?xml version="1.0" encoding="UTF-8" standalone="no"?>
<!DOCTYPE svg PUBLIC "-//W3C//DTD SVG 1.1//EN" "http://www.w3.org/Graphics/SVG/1.1/DTD/svg11.dtd">
<svg width="100%" height="100%" viewBox="0 0 142 142" version="1.1" xmlns="http://www.w3.org/2000/svg" xmlns:xlink="http://www.w3.org/1999/xlink" xml:space="preserve" xmlns:serif="http://www.serif.com/" style="fill-rule:evenodd;clip-rule:evenodd;stroke-linejoin:round;stroke-miterlimit:2;">
    <g transform="matrix(1,0,0,1,-35.5619,-362.145)">
        <g>
            <g transform="matrix(1,0,0,1,35.5119,362.095)">
                <circle cx="70.9" cy="70.9" r="66.9" style="fill:rgb(183,0,5);"/>
            </g>
            <g transform="matrix(1,0,0,1,35.5619,362.145)">
                <path d="M70.8,141.7C31.8,141.7 0,109.9 0,70.8C0,31.7 31.8,0 70.8,0C109.8,0 141.7,31.8 141.7,70.9C141.7,110 109.9,141.7 70.8,141.7ZM70.8,8C36.2,8 8,36.2 8,70.8C8,105.4 36.2,133.6 70.8,133.6C105.4,133.6 133.6,105.4 133.6,70.8C133.6,36.2 105.5,8 70.8,8Z" style="fill:rgb(204,204,204);fill-rule:nonzero;"/>
            </g>
            <g transform="matrix(1,0,0,1,35.5619,362.145)">
                <path d="M70.8,141.7C31.8,141.7 0,109.9 0,70.8C0,31.7 31.8,0 70.8,0C109.8,0 141.7,31.8 141.7,70.9C141.7,110 109.9,141.7 70.8,141.7ZM70.8,8C36.2,8 8,36.2 8,70.8C8,105.4 36.2,133.6 70.8,133.6C105.4,133.6 133.6,105.4 133.6,70.8C133.6,36.2 105.5,8 70.8,8Z" style="fill:rgb(204,204,204);fill-rule:nonzero;"/>
            </g>
            <g transform="matrix(1.26039,0,0,1.26039,44.2404,369.375)">
                <g transform="matrix(0.143652,0,0,0.143652,13.7016,13.7016)">
                    <path d="M184,296L176,296L176,248C176,243.611 172.389,240 168,240C165.879,240 163.843,240.843 162.343,242.343L108.687,296L56,296C34.066,296.025 16.025,314.066 16,336L16,456C16.025,477.934 34.066,495.975 56,496L184,496C205.934,495.975 223.975,477.934 224,456L224,336C223.975,314.066 205.934,296.025 184,296ZM208,456C207.985,469.16 197.16,479.985 184,480L56,480C42.84,479.985 32.015,469.16 32,456L32,336C32.015,322.84 42.84,312.015 56,312L112,312C114.121,312 116.157,311.157 117.657,309.657L160,267.313L160,304C160,308.389 163.611,312 168,312L184,312C197.16,312.015 207.985,322.84 208,336L208,456Z" style="fill:white;fill-rule:nonzero;"/>
                </g>
                <g transform="matrix(0.143652,0,0,0.143652,13.7016,13.7016)">
                    <path d="M168,328L72,328C58.84,328.015 48.015,338.84 48,352L48,408C48.015,421.16 58.84,431.985 72,432L96,432L96,440C95.995,444.387 92.387,447.995 88,448C83.611,448 80,451.611 80,456C80,460.389 83.611,464 88,464L152,464C156.389,464 160,460.389 160,456C160,451.611 156.389,448 152,448C147.613,447.995 144.005,444.387 144,440L144,432L168,432C181.16,431.985 191.985,421.16 192,408L192,352C191.985,338.84 181.16,328.015 168,328ZM72,344L168,344C172.387,344.005 175.995,347.613 176,352L176,392L64,392L64,352C64.005,347.613 67.613,344.005 72,344ZM129.371,448L110.629,448C111.539,445.431 112.003,442.725 112,440L112,432L128,432L128,440C127.997,442.725 128.461,445.431 129.371,448ZM168,416L72,416C67.613,415.995 64.005,412.387 64,408L176,408C175.995,412.387 172.387,415.995 168,416Z" style="fill:white;fill-rule:nonzero;"/>
                </g>
                <g transform="matrix(0.143652,0,0,0.143652,13.7016,13.7016)">
                    <path d="M440,16L312,16C290.066,16.025 272.025,34.066 272,56L272,176C272.025,197.934 290.066,215.975 312,216L320,216L320,264C320,264 320,264.001 320,264.001C320,268.389 323.611,272 327.999,272C330.121,272 332.157,271.157 333.657,269.657L387.313,216L440,216C461.934,215.975 479.975,197.934 480,176L480,56C479.975,34.066 461.934,16.025 440,16ZM464,176C463.985,189.16 453.16,199.985 440,200L384,200C381.879,200 379.843,200.843 378.343,202.343L336,244.687L336,208C336,203.611 332.389,200 328,200L312,200C298.84,199.985 288.015,189.16 288,176L288,56C288.015,42.84 298.84,32.015 312,32L440,32C453.16,32.015 463.985,42.84 464,56L464,176Z" style="fill:white;fill-rule:nonzero;"/>
                </g>
                <g transform="matrix(0.143652,0,0,0.143652,13.7016,13.7016)">
                    <path d="M424,48L328,48C314.84,48.015 304.015,58.84 304,72L304,128C304.015,141.16 314.84,151.985 328,152L352,152L352,160C351.995,164.387 348.387,167.995 344,168C339.611,168 336,171.611 336,176C336,180.389 339.611,184 344,184L408,184C412.389,184 416,180.389 416,176C416,171.611 412.389,168 408,168C403.613,167.995 400.005,164.387 400,160L400,152L424,152C437.16,151.985 447.985,141.16 448,128L448,72C447.985,58.84 437.16,48.015 424,48ZM328,64L424,64C428.387,64.005 431.995,67.613 432,72L432,112L320,112L320,72C320.005,67.613 323.613,64.005 328,64ZM385.371,168L366.629,168C367.539,165.431 368.003,162.725 368,160L368,152L384,152L384,160C383.997,162.725 384.461,165.431 385.371,168ZM424,136L328,136C323.613,135.995 320.005,132.387 320,128L432,128C431.995,132.387 428.387,135.995 424,136Z" style="fill:white;fill-rule:nonzero;"/>
                </g>
                <g transform="matrix(0.143652,0,0,0.143652,13.7016,13.7016)">
                    <path d="M453.647,225.221C455.214,235.406 456.001,245.695 456,256C456.032,308.211 435.548,358.4 398.992,395.679L393.657,390.343C389.851,386.542 387.71,381.379 387.71,376C387.71,370.621 389.851,365.458 393.657,361.657C400.461,354.854 404.288,345.618 404.288,335.997C404.288,316.092 387.908,299.712 368.003,299.712C358.382,299.712 349.146,303.539 342.343,310.343C334.469,318.199 321.531,318.199 313.657,310.343L289.657,286.343C286.178,282.863 286.178,277.137 289.657,273.657C299.343,263.97 299.343,248.03 289.657,238.343C286.887,235.55 286.246,231.254 288.082,227.774L273.974,220.226C268.753,229.89 270.54,241.925 278.343,249.657C281.822,253.137 281.822,258.863 278.343,262.343C268.657,272.03 268.657,287.97 278.343,297.657L302.343,321.657C316.428,335.71 339.572,335.71 353.657,321.657C357.459,317.854 362.622,315.716 368,315.716C379.128,315.716 388.284,324.872 388.284,336C388.284,341.378 386.146,346.541 382.343,350.343C375.538,357.143 371.71,366.379 371.71,376C371.71,385.621 375.538,394.857 382.343,401.657L387.366,406.679C351.021,438.504 304.309,456.041 256,456C250.873,456 245.694,455.804 240.607,455.417L239.393,471.371C244.882,471.788 250.47,472 256,472C374.494,472 472,374.494 472,256C472.001,244.878 471.151,233.772 469.46,222.779L453.647,225.221Z" style="fill:white;fill-rule:nonzero;"/>
                </g>
                <g transform="matrix(0.143652,0,0,0.143652,13.7016,13.7016)">
                    <path d="M209.657,230.343C195.389,215.997 175.954,207.945 155.72,208L152,208C143.223,208 136,200.777 136,192C136,183.223 143.223,176 152,176C164.353,175.965 176.206,171.056 184.967,162.347L191.027,156.287C206.54,140.767 206.54,115.233 191.027,99.713C186.545,95.206 184.018,89.107 184,82.75L184,69.414C206.963,60.527 231.377,55.978 256,56L256,40C137.506,40 40,137.506 40,256C40,264.325 40.475,272.642 41.422,280.913L57.317,279.087C56.44,271.423 56,263.714 56,256C56,177.279 101.723,109.046 168,76.433L168,82.75C167.971,93.358 172.192,103.547 179.713,111.027C189.02,120.34 189.02,135.66 179.713,144.973L173.653,151.033C167.899,156.753 160.114,159.977 152,160C134.445,160 120,174.445 120,192C120,209.555 134.445,224 152,224L155.72,224C188.787,224.004 215.996,251.213 216,284.28C215.999,287.837 215.757,291.389 215.275,294.914L231.127,297.086C231.708,292.842 231.999,288.564 232,284.28C231.998,264.057 223.955,244.643 209.657,230.343Z" style="fill:white;fill-rule:nonzero;"/>
                </g>
            </g>
        </g>
    </g>
</svg>
