<?xml version="1.0" encoding="UTF-8" standalone="no"?>
<!DOCTYPE svg PUBLIC "-//W3C//DTD SVG 1.1//EN" "http://www.w3.org/Graphics/SVG/1.1/DTD/svg11.dtd">
<svg width="100%" height="100%" viewBox="0 0 142 142" version="1.1" xmlns="http://www.w3.org/2000/svg" xmlns:xlink="http://www.w3.org/1999/xlink" xml:space="preserve" xmlns:serif="http://www.serif.com/" style="fill-rule:evenodd;clip-rule:evenodd;stroke-linejoin:round;stroke-miterlimit:2;">
    <g transform="matrix(1,0,0,1,-204.388,-365.564)">
        <g>
            <g transform="matrix(1,0,0,1,168.827,3.41902)">
                <g transform="matrix(1,0,0,1,35.5119,362.095)">
                    <circle cx="70.9" cy="70.9" r="66.9" style="fill:rgb(183,0,5);"/>
                </g>
                <g transform="matrix(1,0,0,1,35.5619,362.145)">
                    <path d="M70.8,141.7C31.8,141.7 0,109.9 0,70.8C0,31.7 31.8,0 70.8,0C109.8,0 141.7,31.8 141.7,70.9C141.7,110 109.9,141.7 70.8,141.7ZM70.8,8C36.2,8 8,36.2 8,70.8C8,105.4 36.2,133.6 70.8,133.6C105.4,133.6 133.6,105.4 133.6,70.8C133.6,36.2 105.5,8 70.8,8Z" style="fill:rgb(204,204,204);fill-rule:nonzero;"/>
                </g>
                <g transform="matrix(1,0,0,1,35.5619,362.145)">
                    <path d="M70.8,141.7C31.8,141.7 0,109.9 0,70.8C0,31.7 31.8,0 70.8,0C109.8,0 141.7,31.8 141.7,70.9C141.7,110 109.9,141.7 70.8,141.7ZM70.8,8C36.2,8 8,36.2 8,70.8C8,105.4 36.2,133.6 70.8,133.6C105.4,133.6 133.6,105.4 133.6,70.8C133.6,36.2 105.5,8 70.8,8Z" style="fill:rgb(204,204,204);fill-rule:nonzero;"/>
                </g>
            </g>
            <g id="Layer_19" transform="matrix(0.181452,0,0,0.181452,228.787,389.963)">
                <path d="M256,8C119.951,8 8,119.951 8,256C8,392.049 119.951,504 256,504C392.049,504 504,392.049 504,256C504,119.951 392.049,8 256,8ZM256,488C131.695,488.074 28.286,388.231 24,264L56,264L56,248L24,248C25.829,192.066 47.962,138.667 86.24,97.84L106.08,117.68L117.44,106.32L97.6,86.48C138.452,48.061 191.951,25.837 248,24L248,48L264,48L264,24C319.934,25.829 373.333,47.962 414.16,86.24L394.32,106.08L405.68,117.44L425.52,97.6C463.939,138.452 486.163,191.951 488,248L464,248L464,264L488,264C483.714,388.231 380.305,488.074 256,488Z" style="fill:white;fill-rule:nonzero;"/>
                <path d="M64.72,248L112.72,248C116.796,248.025 120.272,244.931 120.72,240.88C123.521,215.685 133.365,191.781 149.12,171.92C151.632,168.743 151.355,164.133 148.48,161.28L114.4,127.12C112.903,125.641 110.882,124.811 108.778,124.811C106.409,124.811 104.159,125.863 102.64,127.68C76.049,159.316 59.991,198.482 56.72,239.68C56.58,241.901 57.329,244.09 58.8,245.76C60.381,247.288 62.524,248.099 64.72,248ZM109.44,144.8L132.4,168C118.766,187.01 109.704,208.914 105.92,232L73.92,232C77.917,200.326 90.167,170.251 109.44,144.8Z" style="fill:white;fill-rule:nonzero;"/>
                <path d="M447.28,264L399.28,264C395.204,263.975 391.728,267.069 391.28,271.12C388.424,296.302 378.586,320.191 362.88,340.08C360.368,343.257 360.645,347.867 363.52,350.72L397.76,384.88C399.25,386.357 401.262,387.191 403.36,387.2L403.76,387.2C405.998,387.089 408.089,386.044 409.52,384.32C436.111,352.684 452.169,313.518 455.44,272.32C455.58,270.099 454.831,267.91 453.36,266.24C451.741,264.67 449.531,263.856 447.28,264ZM402.56,367.2L379.6,344C393.234,324.99 402.296,303.086 406.08,280L438.08,280C434.083,311.674 421.833,341.749 402.56,367.2Z" style="fill:white;fill-rule:nonzero;"/>
                <path d="M149.28,340.08C133.574,320.191 123.736,296.302 120.88,271.12C120.432,267.069 116.956,263.975 112.88,264L64.88,264C62.636,263.985 60.486,264.915 58.96,266.56C57.489,268.23 56.74,270.419 56.88,272.64C60.151,313.838 76.209,353.004 102.8,384.64C104.231,386.364 106.322,387.409 108.56,387.52C110.658,387.511 112.67,386.677 114.16,385.2L148.4,351.04C151.537,348.215 151.926,343.369 149.28,340.08ZM109.28,367.2C89.95,341.765 77.644,311.689 73.6,280L105.6,280C109.384,303.086 118.446,324.99 132.08,344L109.28,367.2Z" style="fill:white;fill-rule:nonzero;"/>
                <path d="M271.12,120.88C296.315,123.681 320.219,133.525 340.08,149.28C341.498,150.38 343.245,150.972 345.04,150.96C347.166,150.972 349.211,150.137 350.72,148.64L384.88,114.48C386.479,112.874 387.323,110.663 387.2,108.4C387.089,106.162 386.044,104.071 384.32,102.64C352.684,76.049 313.518,59.991 272.32,56.72C270.093,56.533 267.886,57.288 266.24,58.8C264.595,60.326 263.665,62.476 263.68,64.72L263.68,112.72C263.585,116.965 266.884,120.584 271.12,120.88ZM280,73.6C311.705,77.691 341.782,90.053 367.2,109.44L344,132.4C325.004,118.741 303.094,109.676 280,105.92L280,73.6Z" style="fill:white;fill-rule:nonzero;"/>
                <path d="M161.28,148.64C162.789,150.137 164.834,150.972 166.96,150.96C168.755,150.972 170.502,150.38 171.92,149.28C191.781,133.525 215.685,123.681 240.88,120.88C244.931,120.432 248.025,116.956 248,112.88L248,64.88C248.015,62.636 247.085,60.486 245.44,58.96C243.794,57.448 241.587,56.693 239.36,56.88C198.162,60.151 158.996,76.209 127.36,102.8C125.636,104.231 124.591,106.322 124.48,108.56C124.357,110.823 125.201,113.034 126.8,114.64L161.28,148.64ZM232,73.6L232,105.6C208.906,109.356 186.996,118.421 168,132.08L144.8,109.44C170.218,90.053 200.295,77.691 232,73.6Z" style="fill:white;fill-rule:nonzero;"/>
                <path d="M403.6,124.8C401.365,124.7 399.187,125.542 397.6,127.12L363.36,161.28C360.485,164.133 360.208,168.743 362.72,171.92C378.475,191.781 388.319,215.685 391.12,240.88C391.568,244.931 395.044,248.025 399.12,248L447.12,248C449.364,248.015 451.514,247.085 453.04,245.44C454.511,243.77 455.26,241.581 455.12,239.36C451.849,198.162 435.791,158.996 409.2,127.36C407.75,125.794 405.733,124.872 403.6,124.8ZM406.08,232C402.296,208.914 393.234,187.01 379.6,168L402.56,145.12C421.896,170.447 434.255,200.407 438.4,232L406.08,232Z" style="fill:white;fill-rule:nonzero;"/>
                <path d="M232.48,356.88C238.25,363.926 246.892,368.019 256,368.019C265.108,368.019 273.75,363.926 279.52,356.88C286.385,348.632 289.31,337.781 287.52,327.2L264,182.72C264,178.331 260.389,174.72 256,174.72C251.611,174.72 248,178.331 248,182.72L224,327.2C222.341,337.852 225.444,348.712 232.48,356.88ZM240.48,329.84L256.48,233.84L272.48,329.84C273.517,335.747 271.94,341.823 268.16,346.48C265.365,349.871 261.194,351.839 256.8,351.839C252.406,351.839 248.235,349.871 245.44,346.48C241.26,342.012 239.266,335.914 240,329.84L240.48,329.84Z" style="fill:white;fill-rule:nonzero;"/>
            </g>
        </g>
    </g>
</svg>
